<svg xmlns="http://www.w3.org/2000/svg" width="108" height="100" viewBox="0 0 108 100"><filter height="280%" width="280%" id="a" filterUnits="objectBoundingBox" y="-90%" x="-90%"><feGaussianBlur in="SourceGraphic" stdDeviation="12"/></filter><path fill="#00BFFB" fill-opacity=".32" d="M31.292 84.984l1.313-5.056-14.613 4.415-1.313 5.057 14.613-4.416z"/><path fill="#0270D7" d="M41.203 74.416L.222 46.516l30.541-21.314 23.908 16.277-11.69 10.839-1.706 22-.072.098z"/><path fill="#00BFFB" d="M103.305 14.443l4.557-4.866-16.287-4.74-4.557 4.867 16.287 4.739z"/><path fill="#DD53B9" d="M56.9 77.244L54.771 92.89l39.645-15.05 2.128-15.648L56.9 77.244z"/><path opacity=".48" fill="#1D2026" d="M32 36h40v40H32z" filter="url(#a)"/><linearGradient id="b" gradientUnits="userSpaceOnUse" x1="-1986.774" y1="1073.145" x2="-1986.174" y2="1072.46" gradientTransform="matrix(55.0079 33.0521 17.0855 -28.435 91009.266 96185.695)"><stop offset="0" stop-color="#2c3039"/><stop offset="1" stop-color="#8a94a7"/></linearGradient><path fill="url(#b)" d="M97.362 45.856a2.964 2.964 0 0 0-.411-1.832L79.453 15.94a2.889 2.889 0 0 0-2.259-1.356L44.148 12.34a2.97 2.97 0 0 0-1.814.498l19.05 30.577 35.978 2.441z"/><path fill="#2C3039" d="M43.266 11.908a3.152 3.152 0 0 0-.96.977L23.763 43.707c-.586.974-.604 2.174-.048 3.1l16.423 27.335c.229.379.543.692.917.916l20.089-33.39-17.878-29.76z"/><linearGradient id="c" gradientUnits="userSpaceOnUse" x1="-1980.107" y1="1073.688" x2="-1980.358" y2="1072.692" gradientTransform="matrix(28.4623 17.1019 28.4652 -47.3741 25881.666 84768.172)"><stop offset="0" stop-color="#3b404c"/><stop offset="1" stop-color="#333843"/></linearGradient><path fill="url(#c)" d="M61.138 41.656L41.074 75.049a3.05 3.05 0 0 0 1.312.438l33.59 2.703a2.994 2.994 0 0 0 2.821-1.451l18.52-30.822c.23-.402.365-.853.392-1.316l-36.571-2.945z"/></svg>