<svg xmlns="http://www.w3.org/2000/svg" width="103" height="100" viewBox="0 0 103 100"><filter height="280%" width="280%" id="a" filterUnits="objectBoundingBox" y="-90%" x="-90%"><feGaussianBlur in="SourceGraphic" stdDeviation="12"/></filter><path fill="#0270D7" d="M48.028 64.452L.086 77.076l3.95-37.033 27.97-7.364c.1 3.076.27 8.387.512 15.935l15.485 15.72.025.118z"/><path fill="#DD53B9" d="M91.768 72.042l2.455-13.396L58.895 70.67 56.44 84.066l35.328-12.024z"/><path fill="#00BFFB" d="M40.783 98.37l6.378-1.937-11.735-12.247-6.379 1.937L40.783 98.37z"/><path fill="#00BFFB" fill-opacity=".32" d="M23.783 14.37l6.378-1.937L18.426.185l-6.379 1.937L23.783 14.37z"/><path opacity=".48" fill="#1D2026" d="M34 31h40v40H34z" filter="url(#a)"/><linearGradient id="b" gradientUnits="userSpaceOnUse" x1="-1986.663" y1="1072.982" x2="-1986.913" y2="1071.987" gradientTransform="matrix(43.6594 22.2456 22.2469 -43.6619 62952.547 91077.188)"><stop offset="0" stop-color="#3b404c"/><stop offset="1" stop-color="#333843"/></linearGradient><path fill="url(#b)" d="M78.632 27.008a.94.94 0 0 1 .641.774l2.558 46.413c.018.178-.031.377-.12.551-.286.56-.978.859-1.537.666l-44.738-15.44a.915.915 0 0 1-.433-.312c-.344-.441-.199-1.125.333-1.514l42.18-30.971c.129-.085.281-.15.442-.192a1.22 1.22 0 0 1 .674.025"/><linearGradient id="c" gradientUnits="userSpaceOnUse" x1="-1987.729" y1="1073.332" x2="-1987.129" y2="1072.648" gradientTransform="matrix(46.1466 23.5128 29.2155 -57.3386 60412.695 108276.438)"><stop offset="0" stop-color="#2c3039"/><stop offset="1" stop-color="#8a94a7"/></linearGradient><path fill="url(#c)" d="M62.31 1.382c-.006-.01-.015-.019-.021-.03a.962.962 0 0 0-.125-.138c-.009-.006-.021-.009-.03-.016a.909.909 0 0 0-.3-.173 1.083 1.083 0 0 0-.324-.058h-.004A1.207 1.207 0 0 0 61.3.98c-.045.006-.09.014-.134.025l-.011.003a1.528 1.528 0 0 0-.43.194L18.57 32.771a1.504 1.504 0 0 0-.124.103c-.044.042-.069.092-.107.138-.037.046-.078.09-.108.14a1.192 1.192 0 0 0-.101.225c-.018.05-.043.097-.053.148a.94.94 0 0 0-.014.254c.001.042-.009.085-.001.126.02.125.066.244.136.35l17.226 25.53a.86.86 0 0 1-.135-.352c-.006-.041.001-.084 0-.127-.001-.085-.003-.17.014-.253.012-.052.036-.099.053-.148.028-.077.056-.154.102-.227.031-.05.071-.093.108-.139.07-.085.139-.172.231-.241l42.152-31.566c.13-.087.28-.155.441-.197.117-.03.233-.04.344-.038.229 0 .451.082.625.231a.93.93 0 0 1 .176.184L62.31 1.382z"/></svg>