<svg xmlns="http://www.w3.org/2000/svg" width="112" height="100" viewBox="0 0 112 100"><filter height="280%" width="280%" id="a" filterUnits="objectBoundingBox" y="-90%" x="-90%"><feGaussianBlur in="SourceGraphic" stdDeviation="12"/></filter><path fill="#0270D7" d="M35.521 6.938L12.04 35.843l48.938 16.136L84.46 23.073 35.521 6.938z"/><path fill="#DD53B9" d="M20 65.494L35.822 74 36 26.506 20.176 18 20 65.494z"/><g transform="translate(28 31)"><path opacity=".48" fill="#1D2026" d="M1 0h40v40H1z" filter="url(#a)"/><linearGradient id="b" gradientUnits="userSpaceOnUse" x1="-2013.117" y1="1038.598" x2="-2014.109" y2="1038.12" gradientTransform="matrix(62.7745 0 0 -54.1481 126433.68 56248.61)"><stop offset="0" stop-color="#2c3039"/><stop offset=".481" stop-color="#8a94a7"/><stop offset="1" stop-color="#2c3039"/></linearGradient><path fill="url(#b)" d="M11.261 54.752l-9.71-18.785C.096 33.153-.389 29.783.327 26.051 2.637 14.01 16.59 2.732 31.492.867 41.775-.42 49.824 3.11 53.064 9.38l9.711 18.785c-3.242-6.271-11.291-9.8-21.573-8.515C26.3 21.518 12.347 32.793 10.036 44.837c-.716 3.731-.23 7.101 1.225 9.915"/><linearGradient id="c" gradientUnits="userSpaceOnUse" x1="-2012.666" y1="1037.678" x2="-2012.917" y2="1036.681" gradientTransform="matrix(54.6166 0 0 -44.1387 109968.352 45822.586)"><stop offset="0" stop-color="#3b404c"/><stop offset="1" stop-color="#333843"/></linearGradient><path fill="url(#c)" d="M32.833 63.264c-14.9 1.866-25.108-6.384-22.797-18.428 2.31-12.043 16.264-23.318 31.166-25.184C56.104 17.786 66.311 26.036 64 38.08c-2.311 12.043-16.264 23.318-31.167 25.184z"/></g><path fill="#00BFFB" d="M22.991 85.677l.826-6.614L7.855 84.8l-.825 6.616 15.961-5.739z"/><path fill="#00BFFB" fill-opacity=".32" d="M106.721 46.737l4.408-2.801-13.699-6.737L93.021 40l13.7 6.737z"/></svg>