<?xml version="1.0" encoding="utf-8"?>
<!-- Generator: Adobe Illustrator 16.0.0, SVG Export Plug-In . SVG Version: 6.00 Build 0)  -->
<!DOCTYPE svg PUBLIC "-//W3C//DTD SVG 1.1//EN" "http://www.w3.org/Graphics/SVG/1.1/DTD/svg11.dtd">
<svg version="1.1" id="Layer_1" xmlns="http://www.w3.org/2000/svg" xmlns:xlink="http://www.w3.org/1999/xlink" x="0px" y="0px"
	 width="103px" height="100px" viewBox="0 0 103 100" enable-background="new 0 0 103 100" xml:space="preserve">
<filter  height="280%" width="280%" id="a" filterUnits="objectBoundingBox" y="-90%" x="-90%">
	<feGaussianBlur  in="SourceGraphic" stdDeviation="12"></feGaussianBlur>
</filter>
<g>
	<path fill="#0270D7" d="M48.028,64.452L0.086,77.076l3.95-37.033l27.97-7.364c0.1,3.076,0.27,8.387,0.512,15.935l15.485,15.72
		L48.028,64.452z"/>
	<path fill="#DD53B9" d="M91.768,72.042l2.455-13.396L58.895,70.67l-2.455,13.396L91.768,72.042z"/>
	<path fill="#00BFFB" d="M40.783,98.37l6.378-1.937L35.426,84.186l-6.379,1.937L40.783,98.37z"/>
	<path fill="#00BFFB" fill-opacity="0.32" d="M23.783,14.37l6.378-1.937L18.426,0.185l-6.379,1.937L23.783,14.37z"/>
	<g filter="url(#a)">
		<rect x="34" y="31" opacity="0.48" fill="#1D2026" width="40" height="40"/>
	</g>
	
		<linearGradient id="SVGID_1_" gradientUnits="userSpaceOnUse" x1="-1986.6631" y1="1072.9824" x2="-1986.9132" y2="1071.9875" gradientTransform="matrix(43.6594 22.2456 22.2469 -43.6619 62952.5469 91077.1875)">
		<stop  offset="0" style="stop-color:#3B404C"/>
		<stop  offset="1" style="stop-color:#333843"/>
	</linearGradient>
	<path fill="url(#SVGID_1_)" d="M78.632,27.008c0.345,0.113,0.595,0.414,0.641,0.774l2.558,46.413
		c0.018,0.178-0.031,0.377-0.12,0.551c-0.286,0.56-0.978,0.859-1.537,0.666l-44.738-15.44c-0.172-0.059-0.323-0.167-0.433-0.312
		c-0.344-0.441-0.199-1.125,0.333-1.514l42.18-30.971c0.129-0.085,0.281-0.15,0.442-0.192
		C78.199,26.927,78.433,26.939,78.632,27.008"/>
	
		<linearGradient id="SVGID_2_" gradientUnits="userSpaceOnUse" x1="-1987.7295" y1="1073.332" x2="-1987.1293" y2="1072.6479" gradientTransform="matrix(46.1466 23.5128 29.2155 -57.3386 60412.6953 108276.4375)">
		<stop  offset="0" style="stop-color:#2C3039"/>
		<stop  offset="1" style="stop-color:#8A94A7"/>
	</linearGradient>
	<path fill="url(#SVGID_2_)" d="M62.31,1.382c-0.006-0.01-0.015-0.019-0.021-0.03c-0.037-0.05-0.079-0.096-0.125-0.138
		c-0.009-0.006-0.021-0.009-0.03-0.016c-0.088-0.076-0.189-0.135-0.3-0.173c-0.104-0.036-0.214-0.055-0.324-0.058l-0.004,0
		c-0.067-0.001-0.136,0.002-0.206,0.013c-0.045,0.006-0.09,0.014-0.134,0.025l-0.011,0.003c-0.152,0.042-0.297,0.107-0.43,0.194
		L18.57,32.771c-0.043,0.032-0.084,0.066-0.124,0.103c-0.044,0.042-0.069,0.092-0.107,0.138c-0.037,0.046-0.078,0.09-0.108,0.14
		c-0.044,0.072-0.073,0.147-0.101,0.225c-0.018,0.05-0.043,0.097-0.053,0.148c-0.016,0.083-0.021,0.169-0.014,0.254
		c0.001,0.042-0.009,0.085-0.001,0.126c0.02,0.125,0.066,0.244,0.136,0.35l17.226,25.53c-0.07-0.105-0.117-0.227-0.135-0.352
		c-0.006-0.041,0.001-0.084,0-0.127c-0.001-0.085-0.003-0.17,0.014-0.253c0.012-0.052,0.036-0.099,0.053-0.148
		c0.028-0.077,0.056-0.154,0.102-0.227c0.031-0.05,0.071-0.093,0.108-0.139c0.07-0.085,0.139-0.172,0.231-0.241l42.152-31.566
		c0.13-0.087,0.28-0.155,0.441-0.197c0.117-0.03,0.233-0.04,0.344-0.038c0.229,0,0.451,0.082,0.625,0.231
		c0.067,0.053,0.126,0.115,0.176,0.184L62.31,1.382L62.31,1.382z"/>
</g>
</svg>
