<?xml version="1.0" encoding="utf-8"?>
<!-- Generator: Adobe Illustrator 16.0.0, SVG Export Plug-In . SVG Version: 6.00 Build 0)  -->
<!DOCTYPE svg PUBLIC "-//W3C//DTD SVG 1.1//EN" "http://www.w3.org/Graphics/SVG/1.1/DTD/svg11.dtd">
<svg version="1.1" id="Layer_1" xmlns="http://www.w3.org/2000/svg" xmlns:xlink="http://www.w3.org/1999/xlink" x="0px" y="0px"
	 width="108px" height="100px" viewBox="0 0 108 100" enable-background="new 0 0 108 100" xml:space="preserve">
<filter  height="280%" width="280%" id="a" filterUnits="objectBoundingBox" y="-90%" x="-90%">
	<feGaussianBlur  in="SourceGraphic" stdDeviation="12"></feGaussianBlur>
</filter>
<g>
	<path fill="#00BFFB" fill-opacity="0.32" d="M31.292,84.984l1.313-5.056l-14.613,4.415L16.679,89.4L31.292,84.984z"/>
	<path fill="#0270D7" d="M41.203,74.416l-40.981-27.9l30.541-21.314l23.908,16.277l-11.69,10.839l-1.706,22L41.203,74.416z"/>
	<path fill="#00BFFB" d="M103.305,14.443l4.557-4.866l-16.287-4.74l-4.557,4.867L103.305,14.443z"/>
	<path fill="#DD53B9" d="M56.9,77.244l-2.129,15.646L94.416,77.84l2.128-15.648L56.9,77.244z"/>
	<g filter="url(#a)">
		<rect x="32" y="36" opacity="0.48" fill="#1D2026" width="40" height="40"/>
	</g>
	
		<linearGradient id="SVGID_1_" gradientUnits="userSpaceOnUse" x1="-1986.7739" y1="1073.1445" x2="-1986.1735" y2="1072.4603" gradientTransform="matrix(55.0079 33.0521 17.0855 -28.435 91009.2656 96185.6953)">
		<stop  offset="0" style="stop-color:#2C3039"/>
		<stop  offset="1" style="stop-color:#8A94A7"/>
	</linearGradient>
	<path fill="url(#SVGID_1_)" d="M97.362,45.856c0.065-0.639-0.079-1.282-0.411-1.832L79.453,15.94
		c-0.491-0.789-1.332-1.294-2.259-1.356L44.148,12.34c-0.643-0.035-1.279,0.14-1.814,0.498l19.05,30.577L97.362,45.856
		L97.362,45.856z"/>
	<path fill="#2C3039" d="M43.266,11.908c-0.388,0.251-0.715,0.585-0.96,0.977L23.763,43.707c-0.586,0.974-0.604,2.174-0.048,3.1
		l16.423,27.335c0.229,0.379,0.543,0.692,0.917,0.916l20.089-33.39L43.266,11.908L43.266,11.908z"/>
	
		<linearGradient id="SVGID_2_" gradientUnits="userSpaceOnUse" x1="-1980.1074" y1="1073.6875" x2="-1980.3578" y2="1072.6918" gradientTransform="matrix(28.4623 17.1019 28.4652 -47.3741 25881.666 84768.1719)">
		<stop  offset="0" style="stop-color:#3B404C"/>
		<stop  offset="1" style="stop-color:#333843"/>
	</linearGradient>
	<path fill="url(#SVGID_2_)" d="M61.138,41.656L41.074,75.049c0.398,0.244,0.847,0.395,1.312,0.438l33.59,2.703
		c1.141,0.096,2.235-0.469,2.821-1.451l18.52-30.822c0.23-0.402,0.365-0.853,0.392-1.316L61.138,41.656z"/>
</g>
</svg>
